<?xml version="1.0" encoding="UTF-8" standalone="no"?>
<!-- Created with Inkscape (http://www.inkscape.org/) -->

<svg
   xmlns:dc="http://purl.org/dc/elements/1.1/"
   xmlns:cc="http://creativecommons.org/ns#"
   xmlns:rdf="http://www.w3.org/1999/02/22-rdf-syntax-ns#"
   xmlns:svg="http://www.w3.org/2000/svg"
   xmlns="http://www.w3.org/2000/svg"
   xmlns:sodipodi="http://sodipodi.sourceforge.net/DTD/sodipodi-0.dtd"
   xmlns:inkscape="http://www.inkscape.org/namespaces/inkscape"
   width="96.819016mm"
   height="54.094601mm"
   viewBox="0 0 343.0595 191.67378"
   id="svg2"
   version="1.1"
   inkscape:version="0.91 r13725"
   sodipodi:docname="logo-with-shapes-only-darkbg.svg">
  <defs
     id="defs4" />
  <sodipodi:namedview
     id="base"
     pagecolor="#ffffff"
     bordercolor="#666666"
     borderopacity="1.0"
     inkscape:pageopacity="0.0"
     inkscape:pageshadow="2"
     inkscape:zoom="1.2929412"
     inkscape:cx="-19.199166"
     inkscape:cy="163.41175"
     inkscape:document-units="px"
     inkscape:current-layer="layer1"
     showgrid="false"
     fit-margin-top="0"
     fit-margin-left="0"
     fit-margin-right="0"
     fit-margin-bottom="0"
     inkscape:window-width="1920"
     inkscape:window-height="1108"
     inkscape:window-x="0"
     inkscape:window-y="1"
     inkscape:window-maximized="1" />
  <metadata
     id="metadata7">
    <rdf:RDF>
      <cc:Work
         rdf:about="">
        <dc:format>image/svg+xml</dc:format>
        <dc:type
           rdf:resource="http://purl.org/dc/dcmitype/StillImage" />
        <dc:title></dc:title>
      </cc:Work>
    </rdf:RDF>
  </metadata>
  <g
     inkscape:label="Layer 1"
     inkscape:groupmode="layer"
     id="layer1"
     transform="translate(-156.52401,-192.18934)">
    <g
       style="font-style:normal;font-variant:normal;font-weight:bold;font-stretch:normal;font-size:99.03788757px;line-height:125%;font-family:Rubik;-inkscape-font-specification:'Rubik, Bold';text-align:start;letter-spacing:0px;word-spacing:0px;writing-mode:lr-tb;text-anchor:start;fill:#ffffff;fill-opacity:1;stroke:none;stroke-width:1px;stroke-linecap:butt;stroke-linejoin:miter;stroke-opacity:1"
       id="text3340">
      <path
         d="m 178.80753,330.38266 q 2.8721,0 5.05093,0.59423 2.17884,0.59423 3.76344,1.48557 1.58461,0.89134 2.67403,1.98075 1.08941,0.99038 1.78268,1.88172 l 0,-21.09507 q 0,-1.08941 0.7923,-1.88172 0.7923,-0.7923 1.88172,-0.7923 l 12.47877,0 q 1.08942,0 1.88172,0.7923 0.79231,0.79231 0.79231,1.88172 l 0,64.96886 q 0,1.08942 -0.79231,1.88172 -0.7923,0.7923 -1.88172,0.7923 l -11.98358,0 q -1.08942,0 -1.88172,-0.7923 -0.7923,-0.7923 -0.7923,-1.88172 l 0,-2.27787 q -0.89134,1.08941 -1.98076,2.17883 -0.99038,0.99038 -2.57499,1.88172 -1.48556,0.7923 -3.76344,1.28749 -2.17883,0.59423 -5.44708,0.59423 -4.4567,0 -8.41822,-1.28749 -3.96152,-1.38653 -6.93265,-4.15959 -2.97114,-2.8721 -4.85286,-7.13073 -1.78268,-4.25863 -1.98076,-10.10187 -0.099,-1.48556 -0.099,-3.96151 0,-2.57499 0.099,-4.06055 0.19808,-5.84324 1.98076,-10.10187 1.88172,-4.25863 4.85286,-7.03169 2.97113,-2.8721 6.93265,-4.25863 3.96152,-1.38653 8.41822,-1.38653 z m -4.4567,23.96717 q -0.29712,2.77306 0,5.54612 0.29711,3.46633 2.27787,6.04131 1.98075,2.57499 6.63554,2.57499 2.17883,0 3.76344,-0.69327 1.5846,-0.69326 2.57498,-1.78268 1.08942,-1.18845 1.68364,-2.57498 0.59423,-1.38653 0.79231,-2.8721 0.19807,-1.48557 0.19807,-3.46633 0,-1.98076 -0.19807,-3.46633 -0.19808,-1.48556 -0.79231,-2.87209 -0.59422,-1.38653 -1.68364,-2.47595 -0.99038,-1.18846 -2.57498,-1.88172 -1.58461,-0.69327 -3.76344,-0.69327 -4.65479,0 -6.63554,2.57499 -1.98076,2.57498 -2.27787,6.04131 z"
         style=""
         id="path3481" />
      <path
         d="m 273.16742,353.35945 q 0.099,1.48557 0.099,3.86248 0,2.27787 -0.099,3.76344 -0.19807,4.75382 -2.17883,8.91341 -1.98076,4.15959 -5.44708,7.3288 -3.46633,3.07018 -8.41822,4.85286 -4.85286,1.78268 -10.89417,1.78268 -6.04131,0 -10.99321,-1.78268 -4.85285,-1.78268 -8.31918,-4.85286 -3.46633,-3.16921 -5.44708,-7.3288 -1.98076,-4.15959 -2.17884,-8.91341 -0.099,-1.48557 -0.099,-3.76344 0,-2.37691 0.099,-3.86248 0.099,-4.75382 2.0798,-8.91341 1.98076,-4.15959 5.44708,-7.22976 3.56537,-3.16922 8.41822,-4.9519 4.9519,-1.88172 10.99321,-1.88172 6.04131,0 10.89417,1.88172 4.95189,1.78268 8.41822,4.9519 3.56536,3.07017 5.44708,7.22976 1.98076,4.15959 2.17883,8.91341 z m -36.04979,7.13073 q 0.29712,3.76344 2.67403,5.94227 2.47594,2.0798 6.43746,2.0798 3.96151,0 6.33842,-2.0798 2.47595,-2.17883 2.77306,-5.94227 0.19808,-1.48557 0.19808,-3.36729 0,-1.88172 -0.19808,-3.36729 -0.29711,-3.76344 -2.77306,-5.84323 -2.37691,-2.17884 -6.33842,-2.17884 -3.96152,0 -6.43746,2.17884 -2.37691,2.07979 -2.67403,5.84323 -0.19807,1.48557 -0.19807,3.36729 0,1.88172 0.19807,3.36729 z"
         style=""
         id="path3483" />
      <path
         d="m 298.14819,353.65656 q -0.19808,1.48557 -0.19808,3.46633 0,1.98076 0.19808,3.46633 0.29711,3.56536 2.67402,5.74419 2.37691,2.17884 6.33843,2.17884 3.26825,0 4.95189,-0.89134 1.78268,-0.99038 2.8721,-2.67403 0.49519,-0.7923 1.08942,-1.38653 0.69326,-0.59422 1.78268,-0.59422 l 12.97396,0 q 1.08942,0 1.88172,0.7923 0.89134,0.7923 0.7923,1.88172 -0.099,1.58461 -1.28749,4.65478 -1.18845,3.07017 -4.15959,6.14035 -2.97114,2.97114 -8.02207,5.24901 -5.05093,2.17883 -12.87492,2.17883 -5.54613,0 -10.39898,-1.58461 -4.75382,-1.5846 -8.41822,-4.55574 -3.56537,-2.97114 -5.7442,-7.13073 -2.0798,-4.25863 -2.27787,-9.50763 -0.099,-1.48557 -0.099,-3.96152 0,-2.47595 0.099,-3.96151 0.19807,-5.24901 2.27787,-9.4086 2.17883,-4.25863 5.7442,-7.22977 3.6644,-2.97114 8.41822,-4.55574 4.85285,-1.58461 10.39898,-1.58461 7.82399,0 12.87492,2.27787 5.05093,2.17884 8.02207,5.24901 2.97114,2.97114 4.15959,6.04131 1.18846,3.07018 1.28749,4.65478 0.099,1.08942 -0.7923,1.88172 -0.7923,0.79231 -1.88172,0.79231 l -12.97396,0 q -1.08942,0 -1.78268,-0.59423 -0.59423,-0.59423 -1.08942,-1.38653 -1.08942,-1.68365 -2.8721,-2.57499 -1.68364,-0.99038 -4.95189,-0.99038 -3.96152,0 -6.33843,2.17884 -2.37691,2.17883 -2.67402,5.74419 z"
         style=""
         id="path3485" />
      <path
         d="m 377.9294,331.37304 q 1.08942,0 1.88172,0.7923 0.7923,0.79231 0.7923,1.88172 l 0,10.00283 q 0,1.08942 -0.7923,1.88172 -0.7923,0.7923 -1.88172,0.7923 l -9.01245,0 q -9.11148,0 -9.11148,9.11149 l 0,24.36332 q 0,1.08942 -0.7923,1.88172 -0.79231,0.7923 -1.88172,0.7923 l -12.47878,0 q -1.08942,0 -1.88172,-0.7923 -0.7923,-0.7923 -0.7923,-1.88172 l 0,-46.15166 q 0,-1.08941 0.7923,-1.88172 0.7923,-0.7923 1.88172,-0.7923 l 11.4884,0 q 1.08941,0 1.88172,0.7923 0.7923,0.79231 0.7923,1.88172 l 0,2.27787 q 2.27787,-2.17883 5.44708,-3.56536 3.26825,-1.38653 7.72496,-1.38653 l 5.94227,0 z"
         style=""
         id="path3487" />
      <path
         d="m 438.55295,353.35945 q 0.099,1.48557 0.099,3.86248 0,2.27787 -0.099,3.76344 -0.19807,4.75382 -2.17883,8.91341 -1.98076,4.15959 -5.44709,7.3288 -3.46632,3.07018 -8.41822,4.85286 -4.85285,1.78268 -10.89416,1.78268 -6.04131,0 -10.99321,-1.78268 -4.85286,-1.78268 -8.31918,-4.85286 -3.46633,-3.16921 -5.44709,-7.3288 -1.98075,-4.15959 -2.17883,-8.91341 -0.099,-1.48557 -0.099,-3.76344 0,-2.37691 0.099,-3.86248 0.099,-4.75382 2.0798,-8.91341 1.98075,-4.15959 5.44708,-7.22976 3.56536,-3.16922 8.41822,-4.9519 4.9519,-1.88172 10.99321,-1.88172 6.04131,0 10.89416,1.88172 4.9519,1.78268 8.41822,4.9519 3.56537,3.07017 5.44709,7.22976 1.98076,4.15959 2.17883,8.91341 z m -36.04979,7.13073 q 0.29711,3.76344 2.67402,5.94227 2.47595,2.0798 6.43747,2.0798 3.96151,0 6.33842,-2.0798 2.47595,-2.17883 2.77306,-5.94227 0.19808,-1.48557 0.19808,-3.36729 0,-1.88172 -0.19808,-3.36729 -0.29711,-3.76344 -2.77306,-5.84323 -2.37691,-2.17884 -6.33842,-2.17884 -3.96152,0 -6.43747,2.17884 -2.37691,2.07979 -2.67402,5.84323 -0.19807,1.48557 -0.19807,3.36729 0,1.88172 0.19807,3.36729 z"
         style=""
         id="path3489" />
      <path
         d="m 499.48447,353.35945 q 0.099,1.48557 0.099,3.86248 0,2.27787 -0.099,3.76344 -0.19808,4.75382 -2.17883,8.91341 -1.98076,4.15959 -5.44709,7.3288 -3.46632,3.07018 -8.41822,4.85286 -4.85285,1.78268 -10.89416,1.78268 -6.04132,0 -10.99321,-1.78268 -4.85286,-1.78268 -8.31918,-4.85286 -3.46633,-3.16921 -5.44709,-7.3288 -1.98075,-4.15959 -2.17883,-8.91341 -0.099,-1.48557 -0.099,-3.76344 0,-2.37691 0.099,-3.86248 0.099,-4.75382 2.0798,-8.91341 1.98075,-4.15959 5.44708,-7.22976 3.56536,-3.16922 8.41822,-4.9519 4.95189,-1.88172 10.99321,-1.88172 6.04131,0 10.89416,1.88172 4.9519,1.78268 8.41822,4.9519 3.56537,3.07017 5.44709,7.22976 1.98075,4.15959 2.17883,8.91341 z m -36.04979,7.13073 q 0.29711,3.76344 2.67402,5.94227 2.47595,2.0798 6.43747,2.0798 3.96151,0 6.33842,-2.0798 2.47595,-2.17883 2.77306,-5.94227 0.19808,-1.48557 0.19808,-3.36729 0,-1.88172 -0.19808,-3.36729 -0.29711,-3.76344 -2.77306,-5.84323 -2.37691,-2.17884 -6.33842,-2.17884 -3.96152,0 -6.43747,2.17884 -2.37691,2.07979 -2.67402,5.84323 -0.19808,1.48557 -0.19808,3.36729 0,1.88172 0.19808,3.36729 z"
         style=""
         id="path3491" />
    </g>
    <path
       style="opacity:1;fill:#ffdead;fill-opacity:1;stroke:none;stroke-width:1.59200001;stroke-linecap:round;stroke-linejoin:round;stroke-miterlimit:4;stroke-dasharray:none;stroke-dashoffset:0;stroke-opacity:1"
       d="m 307.5203,315.64702 -69.05582,0 0,-87.87989 c 16.01133,0.23734 32.02166,0.36439 48.03454,0.36439 l 21.83358,16.03114"
       id="rect3344"
       inkscape:connector-curvature="0"
       sodipodi:nodetypes="ccccc" />
    <path
       sodipodi:nodetypes="ccccc"
       inkscape:connector-curvature="0"
       id="path3349"
       d="m 319.89518,297.85813 -69.05582,0 0,-87.87989 c 16.01133,0.23734 32.02166,0.36439 48.03454,0.36439 l 21.83358,16.03114"
       style="opacity:1;fill:#87cefa;fill-opacity:1;stroke:none;stroke-width:1.59200001;stroke-linecap:round;stroke-linejoin:round;stroke-miterlimit:4;stroke-dasharray:none;stroke-dashoffset:0;stroke-opacity:1" />
    <path
       style="opacity:1;fill:#ffffff;fill-opacity:1;stroke:none;stroke-width:1.59200001;stroke-linecap:round;stroke-linejoin:round;stroke-miterlimit:4;stroke-dasharray:none;stroke-dashoffset:0;stroke-opacity:1"
       d="m 333.81693,280.06923 -69.05582,0 0,-87.87989 c 16.01133,0.23734 32.02166,0.36439 48.03454,0.36439 l 21.83358,16.03114"
       id="path3351"
       inkscape:connector-curvature="0"
       sodipodi:nodetypes="ccccc" />
  </g>
</svg>
